<svg xmlns="http://www.w3.org/2000/svg" viewBox="0 0 111.94 25.34"><defs><style>.cls-1,.cls-2{fill:#002060;}.cls-2{stroke:#002060;stroke-miterlimit:10;}</style></defs><title>Asset 2</title><g id="Layer_2" data-name="Layer 2"><g id="Layer_1-2" data-name="Layer 1"><path class="cls-1" d="M68,5.76a4.92,4.92,0,0,0-1.09-.92A10,10,0,0,0,65.36,4a10.56,10.56,0,0,0-1.85-.57,9.5,9.5,0,0,0-2.09-.22,6.57,6.57,0,0,0-4.11,1A3.46,3.46,0,0,0,56,7.18a2.91,2.91,0,0,0,.68,2,4.78,4.78,0,0,0,2.09,1.22c.94.32,2.14.64,3.59,1a24.76,24.76,0,0,1,4.35,1.33,6.76,6.76,0,0,1,2.82,2.08,5.6,5.6,0,0,1,1,3.47,6.27,6.27,0,0,1-.67,3A5.77,5.77,0,0,1,68,23.4a8.24,8.24,0,0,1-2.79,1.22,14.55,14.55,0,0,1-3.46.39,16.46,16.46,0,0,1-3.59-.4,16,16,0,0,1-3.32-1.13,14.77,14.77,0,0,1-2.92-1.87L53.36,19a7.12,7.12,0,0,0,1.41,1.14,14.05,14.05,0,0,0,2,1,13.66,13.66,0,0,0,2.39.76,11.7,11.7,0,0,0,2.65.29,7.36,7.36,0,0,0,4-.93,3,3,0,0,0,1.42-2.72,3,3,0,0,0-.79-2.17,6.17,6.17,0,0,0-2.37-1.36q-1.56-.54-3.81-1.08a27.21,27.21,0,0,1-4.11-1.34,5.87,5.87,0,0,1-2.5-1.92,5.29,5.29,0,0,1-.83-3.08,6.58,6.58,0,0,1,1.12-3.9A6.85,6.85,0,0,1,57,1.34,11.66,11.66,0,0,1,61.49.53a12.75,12.75,0,0,1,3,.34,12,12,0,0,1,2.64,1,11.66,11.66,0,0,1,2.24,1.46Z"/><path class="cls-1" d="M74.82.7l7.31,12.58L89.5.7h3.34L83.66,16v8.81H80.6V16L71.45.7Z"/><path class="cls-1" d="M109.43,5.76a5.16,5.16,0,0,0-1.09-.92,10,10,0,0,0-1.53-.8A10.83,10.83,0,0,0,105,3.47a9.56,9.56,0,0,0-2.09-.22,6.62,6.62,0,0,0-4.12,1,3.48,3.48,0,0,0-1.32,2.88,2.87,2.87,0,0,0,.68,2,4.78,4.78,0,0,0,2.09,1.22c.94.32,2.13.64,3.58,1a25.16,25.16,0,0,1,4.36,1.33A6.76,6.76,0,0,1,111,14.82a5.67,5.67,0,0,1,1,3.47,6.39,6.39,0,0,1-.66,3,5.86,5.86,0,0,1-1.85,2.11,8.42,8.42,0,0,1-2.79,1.22,14.63,14.63,0,0,1-3.47.39,16.53,16.53,0,0,1-3.59-.4,16,16,0,0,1-3.31-1.13,14.49,14.49,0,0,1-2.92-1.87L94.81,19a7.12,7.12,0,0,0,1.41,1.14,13.91,13.91,0,0,0,2,1,14,14,0,0,0,2.4.76,11.64,11.64,0,0,0,2.65.29,7.32,7.32,0,0,0,4-.93,3.05,3.05,0,0,0,1.43-2.72,3,3,0,0,0-.8-2.17,6,6,0,0,0-2.36-1.36Q104,14.53,101.71,14a27.21,27.21,0,0,1-4.11-1.34,5.75,5.75,0,0,1-2.5-1.92,5.22,5.22,0,0,1-.84-3.08,6.58,6.58,0,0,1,1.13-3.9,6.75,6.75,0,0,1,3.09-2.41,11.61,11.61,0,0,1,4.45-.81,12.84,12.84,0,0,1,3,.34,11.73,11.73,0,0,1,2.63,1,11.43,11.43,0,0,1,2.25,1.46Z"/><path class="cls-2" d="M49.73,13.63a24.07,24.07,0,0,1-.9,3.51,11.73,11.73,0,0,1-9.46,7.53,11.7,11.7,0,0,1-10-3,29,29,0,0,1-2.15-2.37L29,18.18l.49.65a10.17,10.17,0,0,0,14,2.15,10,10,0,0,0,4.27-9.33,10.29,10.29,0,0,0-8.84-9.1C34.67,2.08,31.48,3.76,29,7a21.69,21.69,0,0,0-3.19,6.73,19.29,19.29,0,0,1-3.72,6.72A12.18,12.18,0,1,1,20.89,3.71c.75.68,1.37,1.51,2.1,2.32L21.27,7.14l-.33-.42a10,10,0,0,0-8.85-4.23A10.19,10.19,0,0,0,11,22.72a9.75,9.75,0,0,0,8.35-2.37A15.34,15.34,0,0,0,23.59,14c.72-1.85,1.32-3.75,2.17-5.53A14.25,14.25,0,0,1,32,1.89,12.09,12.09,0,0,1,45.84,3.78a12.26,12.26,0,0,1,3.8,7.51,3,3,0,0,0,.09.41Z"/></g></g></svg>